<svg width="943" height="896" viewBox="0 0 943 896" fill="none" xmlns="http://www.w3.org/2000/svg">
<g opacity="0.1" clip-path="url(#clip0)">
<path d="M812.425 281.201C809.834 283.014 812.111 284.61 812.761 286.116C813.303 287.37 815.135 288.166 813.573 289.833C812.25 287.229 810.844 284.662 809.412 281.807C807.04 284.816 806.975 287.424 808.431 290.565C812.04 298.234 815.231 306.083 818.554 313.776C849.067 384.437 879.58 455.099 910.058 525.677C911.394 528.771 912.407 531.806 913.325 535.08C919.955 558.708 907.717 584.828 884.168 595.096C811.467 626.887 738.633 658.14 665.537 689.705C666.569 690.946 668.424 691.336 668.979 693.081C666.972 693.947 665.084 694.862 663.077 695.728C661.8 692.311 659.276 692.211 656.504 693.606C654.868 694.412 651.973 694.372 652.015 696.537C652.045 698.905 655.316 696.599 656.445 698.294C654.069 699.916 651.393 701.071 648.584 701.689C648.048 698.15 646.349 697.892 643.254 699.228C640.494 700.42 640.561 702.872 639.789 704.991C638.981 707.027 637.019 707.08 635.238 707.551C634.541 706.166 635.769 704.644 634.712 703.116C634.127 703.368 633.541 703.621 633.039 703.838C552.5 738.617 472.043 773.36 391.504 808.139C388.409 809.476 385.434 810.859 382.159 811.777C380.044 812.393 380.357 813.349 381.055 814.735C377.979 814.277 375.195 815.182 372.435 816.374C361.682 821.116 350.929 825.859 340.141 830.517C333.366 833.443 326.292 835.903 319.601 838.792C311.452 842.211 303.256 845.751 295.144 849.254C222.357 880.387 149.715 911.855 77.0728 943.323C69.6293 946.538 62.1935 948.161 54.1534 947.466C52.0835 947.268 49.8692 946.736 47.8505 947.806C45.3017 947.419 42.8839 946.875 40.3332 945.794C37.6627 944.665 35.1671 941.874 31.7248 942.864C31.0122 940.294 28.4633 939.907 26.7013 938.584C19.0663 932.852 13.2579 925.836 9.47775 916.852C-17.666 853.764 -44.8933 790.713 -72.2404 727.614C-73.9015 723.767 -76.0168 720.017 -77.8452 716.243C-77.8128 714.939 -77.9477 713.707 -78.8714 712.717C-79.51 711.009 -80.1961 709.42 -80.8347 707.711C-81.6501 706.972 -80.7851 703.92 -83.4956 705.685C-85.6015 701.039 -87.2891 696.211 -88.3077 691.095C-89.1685 686.804 -91.512 682.756 -93.2814 678.658C-98.6258 666.282 -103.97 653.906 -109.398 641.566C-110.12 639.893 -110.675 638.148 -112.245 637.041C-112.355 636.096 -112.466 635.151 -112.576 634.207C-113.129 633.156 -113.598 632.069 -114.151 631.018C-114.513 630.181 -114.91 629.262 -115.187 628.389C-128.729 597.031 -142.223 565.552 -155.764 534.194C-156.775 531.852 -157.703 529.475 -158.666 527.014C-103.3 503.105 -47.8507 479.161 7.5152 455.252C108.629 411.589 209.659 367.961 310.773 324.298C453.035 262.865 595.297 201.433 737.523 139.917C741.454 138.219 743.069 138.514 744.875 142.695C755.83 168.523 767.035 194.243 778.193 220.082C786.318 238.897 794.443 257.713 802.652 276.492C803.121 277.579 802.973 280.222 805.231 279.247C807.238 278.381 808.071 276.632 806.605 274.388C806.413 274.173 806.353 273.802 806.244 273.551C774.792 200.716 743.304 127.797 711.851 54.961C711.237 53.5394 710.743 52.1654 710.129 50.7438C712.142 51.9581 712.423 54.2179 713.254 56.1412C743.84 126.97 774.509 197.762 804.975 268.543C806.347 271.721 808.687 274.382 809.055 277.993C809.192 279.918 811.56 279.887 812.425 281.201ZM794.136 325.709C790.958 327.082 787.744 328.37 784.566 329.743C768.424 336.713 752.366 343.647 736.225 350.617C734.301 351.448 733.275 352.288 734.322 354.713C735.406 357.222 736.827 356.608 738.667 355.813C757.198 347.712 775.848 339.659 794.415 331.641C797.426 330.341 800.557 329.088 803.568 327.788C804.989 327.174 807.692 326.999 805.89 324.205C804.689 322.343 803.583 320.241 800.599 322.522C798.761 324.01 796.358 324.65 794.136 325.709ZM257.604 710.389C259.79 709.247 259.151 707.538 258.56 705.71C257.547 702.675 255.316 700.265 254.052 697.338C235.925 655.36 217.761 613.297 200.052 571.138C198.607 567.793 196.781 564.712 195.456 561.415C192.29 553.853 189.458 546.146 186.412 538.631C182.474 528.823 177.114 519.628 172.973 509.808C160.765 480.85 148.14 452.072 135.718 423.306C133.299 417.703 133.299 417.703 127.779 420.087C46.7371 455.083 -34.3882 490.115 -115.43 525.111C-121.368 527.675 -121.653 528.393 -119.089 534.33C-106.703 563.013 -94.3173 591.696 -81.8478 620.342C-80.2228 624.105 -77.5334 627.806 -76.2677 631.426C-74.5078 636.421 -72.6643 641.379 -70.6535 646.265C-66.2823 657.077 -61.4568 667.793 -56.8346 678.496C-37.1183 724.154 -17.3658 769.896 2.35053 815.554C3.14496 817.394 3.41475 819.857 6.30959 819.897C6.20874 822.421 5.25827 824.816 6.58107 827.419C9.54026 833.583 12.1649 839.89 14.7059 846.234C15.7417 848.863 16.9867 849.218 19.4596 848.051C29.8778 843.453 40.3321 838.939 50.7864 834.424C92.1017 816.583 133.501 798.706 174.816 780.865C206.43 767.213 238.044 753.562 269.693 739.994C272.788 738.657 272.904 737.317 271.629 734.594C269.295 729.649 267.044 724.668 265.129 719.542C263.551 715.659 261.533 712.364 257.604 710.389ZM432.047 748.068L432.011 747.984C507.784 715.263 583.64 682.507 659.413 649.786C701.815 631.476 744.17 613.285 786.573 594.974C796.191 590.821 796.191 590.821 792.038 581.204C789.691 575.769 789.691 575.769 784.255 578.116C548.74 679.818 313.226 781.519 77.6285 883.256C73.4468 885.062 69.3848 886.915 65.167 888.637C62.6218 889.637 61.3331 890.789 63.4219 893.558C64.8264 895.432 66.5313 897.771 66.573 899.936C66.6602 905.653 69.1217 904.689 72.8016 903.1C192.602 851.466 312.366 799.749 432.047 748.068ZM406.482 316.603C331.796 348.854 257.111 381.105 182.425 413.356C173.56 417.184 173.727 417.112 177.376 426.251C179.062 430.385 180.524 431.242 184.873 429.364C246.606 402.508 308.532 375.866 370.338 349.176C458.655 311.039 547.057 272.865 635.375 234.727C643.654 231.151 643.655 231.151 640.486 222.895C640.234 222.31 639.897 221.761 639.848 221.187C639.62 216.523 637.444 216.768 633.847 218.321C558.147 251.209 482.254 283.882 406.482 316.603ZM502.571 512.236C562.286 486.449 622.084 460.627 681.799 434.84C691.334 430.723 691.083 430.832 687.228 420.987C685.554 416.65 683.627 416.093 679.445 417.899C654.511 428.865 629.384 439.616 604.294 450.45C509.118 491.55 413.942 532.649 318.766 573.748C307.559 578.588 307.727 578.516 312.529 589.637C313.938 592.899 315.434 593.146 318.325 591.798C324.943 588.742 331.586 585.972 338.277 583.083C393.094 559.511 447.874 535.855 502.571 512.236ZM539.662 422.799C578.134 406.186 616.606 389.572 655.078 372.959C664.612 368.842 664.445 368.914 660.543 359.189C658.821 354.972 657.156 354.104 652.843 356.065C622.138 369.523 591.324 382.73 560.463 396.057C551.598 399.885 543.466 405.182 534.012 407.876C531.729 408.564 528.621 409.41 527.169 412.021C522.516 420.777 515.26 422.819 506.164 420.596C504.919 420.241 503.039 419.564 502.394 420.14C497.12 424.7 490.414 426.405 484.272 428.958C462.001 438.277 439.982 448.183 417.747 457.586C408.093 461.656 408.129 461.739 412.329 471.236C414.676 476.672 414.676 476.672 420.113 474.324C459.995 457.3 499.888 440.073 539.662 422.799ZM370.31 405.642C334.264 421.208 298.134 436.81 262.088 452.376C254.979 455.445 254.979 455.445 258.371 462.612C258.624 463.198 258.673 463.772 258.843 464.393C260.568 469.998 260.604 470.081 265.957 467.77C338.133 436.602 410.31 405.435 482.45 374.184C485.294 372.956 489.973 373.911 490.848 369.962C491.604 366.659 488.451 363.952 487.653 360.725C486.505 356.459 484.388 356.381 480.744 358.054C443.825 373.897 407.11 389.751 370.31 405.642ZM433.591 597.683C403.734 610.577 373.96 623.434 344.103 636.327C334.485 640.48 334.736 640.372 338.637 650.097C340.395 654.398 342.155 655.027 346.421 653.185C407.067 626.798 467.905 600.625 528.624 574.406C539.162 569.855 538.994 569.927 534.684 559.486C533.179 555.77 531.742 555.2 527.978 556.825C496.568 570.488 465.038 584.104 433.591 597.683ZM649.857 521.955C669.093 513.648 688.245 505.378 707.481 497.071C718.688 492.232 718.605 492.268 713.072 481.064C711.941 478.675 710.636 477.949 708.079 479.152C703.097 481.403 698.127 483.45 693.108 485.617C657.313 501.075 621.601 516.496 585.806 531.953C575.268 536.504 575.351 536.468 579.926 547.291C581.334 550.552 582.604 551.195 585.949 549.75C607.251 540.254 628.531 531.164 649.857 521.955ZM573.207 318.026C556.899 325.069 540.674 332.075 524.365 339.118C514.663 343.307 514.83 343.235 518.66 352.793C520.201 356.592 521.627 357.365 525.558 355.668C559.859 340.657 594.269 325.897 628.643 311.054C637.006 307.442 637.006 307.442 633.635 299.175C633.346 298.506 632.853 297.826 632.816 297.048C632.517 292.911 630.675 293.012 627.45 294.504C609.457 302.472 591.356 310.189 573.207 318.026ZM331.246 512.798C342.118 508.103 352.99 503.408 363.863 498.713C374.735 494.018 374.568 494.091 369.921 483.1C368.441 479.671 366.981 479.508 363.886 480.844C340.003 491.257 316 501.622 292.081 511.951C281.041 516.718 281.208 516.646 285.891 527.72C287.227 530.814 288.545 531.337 291.639 530.001C304.697 524.163 318.067 518.588 331.246 512.798ZM731.757 250.652C721.052 255.275 710.383 259.981 699.522 264.473C696.558 265.653 695.952 267.006 697.383 269.861C699.295 273.599 700.909 277.566 702.439 281.568C703.222 283.611 704.193 284.481 706.498 283.387C728.291 273.877 750.203 264.415 772.068 255.072C774.242 254.133 774.67 253.055 773.647 250.917C771.747 246.976 769.977 242.878 768.411 238.792C767.351 235.877 765.975 235.677 763.335 236.916C752.953 241.598 742.295 246.101 731.757 250.652ZM839.948 502.573C850.653 497.951 861.406 493.208 872.183 488.753C874.859 487.597 875.658 486.458 874.263 483.687C872.315 479.865 870.737 475.983 869.207 471.98C868.172 469.352 866.879 469.116 864.37 470.2C842.912 479.565 821.502 488.81 799.972 498.009C797.463 499.092 796.748 500.194 797.951 502.751C799.815 506.609 801.476 510.455 803.006 514.458C804.067 517.373 805.527 517.537 808.083 516.333C818.705 511.747 829.326 507.16 839.948 502.573ZM781.734 366.386C772.952 370.178 764.171 373.97 755.389 377.762C745.855 381.879 746.022 381.807 749.924 391.532C751.429 395.248 752.902 395.901 756.63 394.193C775.375 385.899 794.313 377.821 813.13 369.695C823.334 365.289 823.166 365.361 818.725 355.075C817.353 351.898 815.988 351.495 813.013 352.879C802.595 357.477 792.188 361.871 781.734 366.386ZM748.237 289.274C739.622 292.994 731.008 296.714 722.31 300.47C712.441 304.732 712.608 304.659 716.63 314.432C717.991 317.813 719.249 318.659 722.893 316.986C741.638 308.693 760.409 300.686 779.226 292.56C789.681 288.046 789.513 288.118 785.262 277.354C784.118 274.474 783.16 274.094 780.436 275.37C769.683 280.112 758.942 284.651 748.237 289.274ZM864.885 559.173C873.416 555.489 881.863 551.841 890.393 548.158C900.262 543.896 900.179 543.932 895.893 533.778C894.485 530.516 893.251 529.958 889.906 531.402C871.077 539.732 852.055 547.846 833.154 556.008C822.783 560.486 822.867 560.45 827.417 570.987C828.645 573.83 829.831 574.508 832.722 573.161C843.439 568.335 854.18 563.796 864.885 559.173ZM702.063 182.117C692.863 186.09 683.747 190.026 674.547 193.999C666.184 197.611 666.351 197.538 669.758 205.889C671.119 209.27 672.484 209.673 675.746 208.265C695.16 199.683 714.6 191.387 734.086 182.972C743.035 179.108 742.868 179.18 739.124 170.28C737.788 167.186 736.4 167.19 733.724 168.346C723.258 173.063 712.684 177.53 702.063 182.117ZM819.45 455.566C828.817 451.521 838.101 447.512 847.468 443.467C855.748 439.892 855.664 439.928 852.005 431.685C850.597 428.424 849.113 427.974 845.887 429.466C826.305 438.12 806.615 446.524 786.961 455.011C778.765 458.55 778.848 458.514 782.412 466.996C783.664 470.126 785.018 470.732 788.076 469.313C798.506 464.511 808.996 460.08 819.45 455.566ZM798.253 406.479C807.286 402.579 816.402 398.642 825.435 394.742C834.383 390.877 834.216 390.95 830.425 382.169C829.269 379.493 828.119 378.898 825.359 380.09C811.214 386.397 796.924 392.37 782.742 398.593C777.306 400.94 772.025 403.419 766.553 405.683C755.859 410.102 757.481 408.112 761.491 418.088C762.635 420.967 764.167 421.298 766.974 419.986C777.392 415.388 787.799 410.994 798.253 406.479ZM803.605 417.265C803.569 417.181 803.569 417.181 803.605 417.265C792.9 421.887 782.195 426.51 771.37 431.085C768.861 432.169 767.787 433.129 769.051 436.056C770.279 438.899 771.725 438.572 773.983 437.597C795.358 428.268 816.852 418.986 838.298 409.824C841.225 408.56 841.258 407.256 840.222 404.628C839.15 401.916 837.656 402.362 835.685 403.313C825.099 407.983 814.394 412.606 803.605 417.265ZM827.174 472.074C827.174 472.074 827.138 471.99 827.174 472.074C837.712 467.523 848.298 462.853 858.872 458.386C861.046 457.447 863.114 456.951 861.586 453.642C860.203 450.668 858.72 450.911 856.294 451.958C835.004 461.252 813.761 470.425 792.398 479.551C789.889 480.634 788.779 481.51 790.079 484.521C791.343 487.448 792.837 487.001 795.059 485.942C805.728 481.236 816.469 476.697 827.174 472.074ZM812.876 439.653C823.749 434.958 834.501 430.215 845.41 425.604C847.752 424.593 848.419 423.61 847.288 421.221C846.266 419.083 845.426 418.057 842.917 419.14C821.291 428.578 799.547 437.968 777.849 447.238C775.089 448.43 775.177 449.781 776.188 452.123C777.296 454.918 778.717 454.304 780.808 453.401C791.466 448.898 802.171 444.276 812.876 439.653ZM848.202 520.539C858.907 515.916 869.696 511.257 880.401 506.635C882.408 505.768 883.83 505.154 882.639 502.394C881.555 499.885 880.371 499.901 878.113 500.876C856.775 510.289 835.317 519.654 813.906 528.9C811.816 529.802 809.807 529.976 811.143 533.07C812.54 536.534 814.545 534.974 816.552 534.107C827.043 529.676 837.664 525.089 848.202 520.539ZM841.955 506.072C831.082 510.767 820.294 515.426 809.421 520.121C807.748 520.843 806.051 521.279 807.123 523.991C808.267 526.87 809.82 526.1 811.744 525.27C833.321 515.952 854.815 506.67 876.393 497.352C878.149 496.594 879.811 496.075 878.775 493.447C877.703 490.734 876.161 491.301 874.154 492.168C863.365 496.827 852.66 501.449 841.955 506.072ZM714.785 211.349C725.49 206.726 736.195 202.103 746.901 197.481C748.49 196.794 750.666 196.549 749.271 193.778C748.129 191.593 747.395 190.124 744.217 191.496C722.795 200.945 701.181 210.179 679.651 219.377C677.56 220.28 676.378 220.989 677.534 223.665C678.689 226.341 679.946 226.493 682.335 225.362C693.088 220.619 703.913 216.044 714.785 211.349ZM742.919 277.879C753.624 273.256 764.413 268.597 775.118 263.974C777.293 263.035 778.893 262.146 777.582 259.339C776.27 256.532 774.719 257.995 773.13 258.681C751.636 267.963 730.226 277.208 708.732 286.49C706.808 287.321 705.063 287.876 706.375 290.683C707.638 293.61 709.382 292.361 711.138 291.603C721.759 287.016 732.381 282.429 742.919 277.879ZM790.668 388.225C801.374 383.602 812.079 378.979 822.784 374.356C824.457 373.634 826.872 373.484 825.536 370.39C824.345 367.63 822.792 368.4 820.785 369.267C799.291 378.548 777.797 387.83 756.219 397.148C754.546 397.87 752.849 398.306 753.921 401.018C755.065 403.897 756.582 403.043 758.505 402.213C769.222 397.387 779.963 392.848 790.668 388.225ZM725.827 238.528C736.532 233.906 747.321 229.247 758.026 224.624C760.201 223.685 761.706 223.035 760.49 219.988C759.262 217.145 757.816 217.472 755.558 218.447C734.267 227.74 712.94 236.95 691.577 246.076C689.403 247.015 687.897 247.665 689.078 250.628C690.438 254.009 692.254 252.927 694.428 251.988C704.919 247.557 715.373 243.043 725.827 238.528ZM719.046 221.216C708.174 225.911 697.385 230.57 686.512 235.265C684.421 236.168 683.275 236.961 684.395 239.553C685.55 242.229 686.807 242.381 689.232 241.334C710.606 232.005 732.017 222.759 753.463 213.597C755.721 212.622 756.951 211.793 755.723 208.95C754.496 206.107 753.049 206.434 750.827 207.493C740.242 212.163 729.584 216.666 719.046 221.216ZM850.709 527.493C840.171 532.044 829.549 536.63 819.011 541.181C817.339 541.903 815.079 542.184 816.295 545.231C817.475 548.194 819.22 547.639 821.311 546.736C827.093 544.041 832.839 541.262 838.682 538.937C854.335 532.674 869.543 525.61 885.124 519.18C887.215 518.277 888.924 517.638 887.54 514.664C886.193 511.773 884.581 512.866 882.824 513.625C872.119 518.247 861.414 522.87 850.709 527.493ZM776.163 354.405C776.127 354.321 776.091 354.238 776.055 354.154C787.011 349.423 798.051 344.656 809.007 339.925C810.011 339.491 811.649 339.379 810.771 337.575C810.146 336.357 809.961 334.552 807.833 334.677C806.11 334.826 804.58 335.189 803.027 335.958C798.667 338.04 794.415 340.372 789.91 342.119C773.767 348.396 758.177 355.723 742.214 362.418C740.123 363.321 737.935 363.769 739.38 367.114C740.968 370.794 742.961 368.743 744.801 367.948C755.255 363.434 765.709 358.919 776.163 354.405ZM868.015 566.651C878.553 562.101 889.211 557.598 899.713 552.964C901.134 552.35 904.054 552.676 902.573 549.248C901.273 546.237 899.673 547.127 897.582 548.03C876.339 557.203 855.012 566.413 833.769 575.586C832.013 576.344 829.873 576.673 831.136 579.6C832.4 582.527 834.06 581.314 835.9 580.52C846.605 575.897 857.31 571.274 868.015 566.651ZM762.238 322.617C751.7 327.167 741.078 331.754 730.577 336.388C728.904 337.111 726.56 337.428 727.944 340.402C729.255 343.209 730.964 342.571 733.139 341.632C739.208 338.912 745.349 336.359 751.538 333.686C766.843 327.077 782.029 320.421 797.334 313.811C799.257 312.981 800.284 312.141 799.236 309.716C798.153 307.207 796.779 307.701 794.939 308.496C783.983 313.227 773.11 317.922 762.238 322.617ZM300.223 843.092C300.139 843.128 300.019 843.081 299.852 843.153C299.852 843.153 299.841 843.356 299.877 843.44C299.96 843.404 300.08 843.451 300.247 843.379C300.247 843.379 300.175 843.212 300.223 843.092Z" fill="#ADD6E1"/>
<path d="M709.974 50.6125C710.588 52.0341 711.082 53.4081 711.696 54.8297C743.148 127.665 774.636 200.584 806.089 273.42C806.197 273.671 806.341 274.005 806.45 274.256C807.879 276.417 807.083 278.249 805.075 279.116C802.817 280.091 802.966 277.447 802.496 276.36C794.288 257.581 786.163 238.766 778.038 219.951C766.916 194.195 755.71 168.475 744.719 142.564C742.95 138.466 741.298 138.088 737.367 139.786C595.178 201.385 452.916 262.818 310.654 324.25C209.54 367.914 108.509 411.541 7.39554 455.205C-47.9704 479.113 -103.42 503.058 -158.786 526.966C-158.978 526.751 -159.17 526.537 -159.362 526.322C-159.892 524.864 -160.386 523.49 -161 522.068C-173.53 493.051 -186.025 464.118 -198.519 435.184C-198.544 434.897 -198.616 434.73 -198.724 434.479C-198.355 433.725 -198.477 432.983 -198.933 432.387C-203.834 407.02 -191.588 383.675 -168.004 373.49C-94.7399 341.853 -21.4762 310.216 51.7038 278.615C53.7947 277.712 55.8494 276.725 57.9403 275.823C58.9914 275.269 60.0787 274.8 61.2135 274.211C62.9222 273.572 64.7147 272.897 66.4235 272.258C66.8892 271.958 67.4385 271.622 67.9042 271.321C74.5949 268.432 81.3218 265.627 88.0125 262.737C88.598 262.485 89.0998 262.268 89.6852 262.015C92.8158 260.762 95.9103 259.426 99.0409 258.173C101.55 257.09 104.059 256.007 106.568 254.923C182.341 222.202 258.113 189.482 333.97 156.725C335.391 156.111 336.693 155.45 338.079 154.752C338.665 154.499 339.25 154.246 339.836 153.994C350.959 149.19 362.082 144.387 373.206 139.584C373.791 139.331 374.376 139.078 374.878 138.861C378.725 137.2 382.656 135.503 386.503 133.841C387.089 133.588 387.674 133.336 388.26 133.083C390.136 132.372 391.928 131.697 393.768 130.903C471.632 97.2791 549.579 63.6194 627.443 29.9959C631.875 28.0818 636.355 26.048 640.788 24.1339C641.409 23.9647 641.947 23.8316 642.533 23.5788C643.574 23.9228 644.458 23.4418 645.306 22.8773C645.928 22.7081 646.465 22.5751 647.051 22.3223C648.906 22.7118 650.579 21.9895 652.251 21.2672L652.335 21.2311C652.778 21.3375 653.185 21.3602 653.628 21.4666C672.776 20.54 689.061 27.001 702.71 40.4544C705.601 43.4723 708.146 46.8381 709.974 50.6125ZM348.121 232.468C350.233 230.464 352.024 229.096 353.586 227.429C358.511 221.83 358.793 215.358 354.577 209.043C351.154 203.873 344.834 202.336 338.033 204.281C327.79 207.216 318.438 212.445 308.52 216.133C305.353 217.302 305.31 218.809 306.501 221.568C312.832 235.999 319.079 250.466 325.279 265.052C326.506 267.895 327.729 268.657 330.703 267.274C333.343 266.034 334.585 265.002 333.045 261.897C330.736 257.239 328.965 252.447 326.823 247.717C325.414 244.456 325.888 242.565 329.543 240.689C337.701 236.372 345.107 236.746 352.466 242.299C355.522 244.551 358.983 246.132 362.218 248.108C368.257 251.752 370.146 251.531 376.21 246.73C370.65 243.277 365.222 239.668 359.604 236.538C356.082 234.586 352.322 233.233 348.121 232.468ZM126.66 324.429C129.91 331.956 133.16 339.482 136.409 347.008C137.276 349.015 138.01 350.484 140.734 349.208C148.356 345.718 156.147 342.85 163.661 339.109C171.557 335.104 176.36 328.764 176.969 319.373C177.404 312.339 174.804 306.318 171.917 300.322C166.866 290.002 156.254 284.961 145.041 287.719C135.693 289.97 127.381 294.849 118.455 298.307C115.826 299.343 116.596 300.895 117.391 302.735C120.413 309.963 123.518 317.154 126.66 324.429ZM372.761 218.752C375.939 226.111 379.2 233.433 382.211 240.864C383.21 243.409 384.36 244.004 386.953 242.884C394.073 239.611 401.494 236.804 408.542 233.363C414.539 230.476 419.348 226.216 421.519 219.524C424.876 209.145 421.311 199.97 415.989 191.552C410.031 182.12 400.656 179.025 390.018 181.733C381.244 183.935 373.517 188.561 365.14 191.682C361.974 192.851 361.93 194.359 363.158 197.202C366.598 204.249 369.62 211.477 372.761 218.752ZM315.78 273.619C320.977 271.176 321.061 271.14 317.187 267.455C315.208 265.631 313.015 263.998 311.036 262.174C300.208 252.265 289.249 242.512 278.552 232.447C275.566 229.668 273.418 231.588 270.801 232.421C268.184 233.253 267.482 234.846 267.537 237.501C267.691 245.67 267.641 253.827 267.675 261.948C267.676 271.373 267.642 280.714 267.81 290.067C267.826 291.251 266.887 293.442 269.411 293.543C272.916 293.617 275.873 290.355 275.875 286.683C275.782 283.251 275.737 279.699 275.441 276.255C275.243 273.959 275.886 272.69 278.144 271.714C283.485 269.606 288.91 267.462 293.998 264.769C297.952 262.665 300.763 262.741 303.524 266.608C305.074 268.816 307.565 270.221 309.413 272.201C311.524 274.563 313.49 275.898 315.78 273.619ZM241.372 306.742C252.699 301.95 259.289 292.854 258.246 283.085C258.05 281.483 258.45 278.731 255.534 279.791C253.371 280.527 249.227 278.744 249.828 284.041C250.745 291.681 246.026 297.986 237.805 301.238C229.799 304.299 221.601 302.779 217.171 296.655C214.409 292.788 211.778 288.764 210.366 284.116C207.556 275.309 209.974 267.121 217.161 261.934C223.882 257.047 232.851 256.448 238.643 261.587C242.564 265.152 244.984 262.023 246.474 260.189C248.489 257.732 245.279 256.042 243.433 254.756C230.887 246.383 211.455 253.087 203.838 267.389C198.137 278.086 201.165 291.76 209.957 300.862C219.217 310.356 228.624 312.148 241.372 306.742ZM105.907 333.589C109.193 341.199 112.599 348.856 115.718 356.538C116.934 359.585 118.774 358.79 120.709 357.756C122.477 356.794 125.575 356.846 124.022 353.25C117.402 338.15 110.866 323.014 104.414 307.843C102.861 304.247 100.63 306.203 98.4305 306.855C95.9804 307.615 95.0984 308.79 96.2901 311.549C99.6351 318.836 102.729 326.231 105.907 333.589ZM357.478 149.351C354.133 150.796 352.54 154.46 354.211 157.41C355.726 160.229 358.444 161.238 361.468 160.428C364.659 159.546 366.788 155.055 365.752 152.426C364.536 149.38 360.657 147.979 357.478 149.351Z" fill="#6EA4B0"/>
<path d="M47.6472 947.795C49.702 946.809 51.7966 947.293 53.9501 947.455C61.9902 948.15 69.5096 946.49 76.8695 943.312C149.512 911.844 222.154 880.376 294.94 849.243C303.136 845.703 311.285 842.284 319.398 838.78C326.208 835.939 333.163 833.431 339.937 830.506C350.762 825.931 361.479 821.105 372.232 816.362C374.992 815.17 377.776 814.266 380.852 814.723C380.971 814.771 381.091 814.818 381.294 814.83C381.175 814.782 380.971 814.771 380.852 814.723C380.154 813.338 379.84 812.382 381.956 811.766C385.147 810.884 388.206 809.464 391.3 808.128C471.84 773.349 552.296 738.606 632.836 703.826C633.422 703.574 633.923 703.357 634.509 703.104C635.649 704.596 634.338 706.155 635.035 707.54C631.308 709.249 627.616 711.041 623.853 712.666C545.571 746.47 467.289 780.275 389.008 814.079C387.753 814.62 386.535 815.246 385.28 815.787C384.695 816.04 384.193 816.257 383.644 816.593C382.125 816.753 380.739 817.451 379.546 818.363C379.211 818.508 378.96 818.616 378.662 818.844C369.03 822.507 359.652 826.755 350.274 831.003C349.688 831.256 349.186 831.473 348.601 831.726C339.221 835.28 330.021 839.253 321.002 843.644C320.416 843.897 319.914 844.113 319.329 844.366C313.725 846.786 308.206 849.17 302.566 851.506C302.243 851.447 301.992 851.555 301.777 851.747C300.355 852.361 298.97 853.059 297.548 853.673C296.712 854.034 295.875 854.395 295.039 854.756C281.992 860.39 268.825 865.977 255.778 871.611C199.994 895.7 144.138 919.621 88.4621 943.961C76.1203 949.39 63.7349 951.96 50.5097 949.139C50.0668 949.032 49.6601 949.01 49.2172 948.903C48.7021 948.629 48.1148 948.189 47.6472 947.795Z" fill="#6EA4B0"/>
<path d="M668.932 693.2C668.497 691.503 666.605 691.03 665.49 689.825C738.586 658.26 811.456 627.091 884.121 595.216C907.754 584.912 919.908 558.827 913.277 535.2C912.396 532.009 911.346 528.89 910.01 525.796C879.497 455.135 848.983 384.474 818.506 313.896C815.148 306.119 811.957 298.27 808.384 290.685C806.928 287.543 807.029 285.019 809.365 281.927C810.88 284.745 812.203 287.349 813.525 289.953C813.85 290.705 814.175 291.458 814.417 292.247C815.635 295.987 816.937 299.691 818.991 303.07C819.605 304.492 820.136 305.949 820.749 307.371C821.002 307.956 821.135 308.494 821.388 309.08C852.876 381.999 884.365 454.918 915.769 527.873C916.781 530.215 917.911 532.604 918.922 534.945C921.235 540.991 921.205 547.354 921.294 553.764C920.505 558.371 919.632 563.014 918.843 567.621C917.638 568.737 917.068 570.174 916.893 571.837C916.355 571.97 916.296 572.293 916.393 572.747C916.167 573.143 915.977 573.622 915.834 573.981C914.047 576.737 912.26 579.493 910.474 582.249C904.024 590.292 895.737 595.458 886.369 599.503C815.746 629.901 745.159 660.383 674.607 690.948C672.815 691.623 670.855 692.37 668.932 693.2Z" fill="#6EA4B0"/>
<path d="M919.054 534.789C918.043 532.448 916.912 530.059 915.901 527.717C884.412 454.798 852.924 381.879 821.519 308.924C821.266 308.338 821.133 307.8 820.881 307.215C822.412 307.546 824.338 307.409 823.615 310.102C823.106 311.909 824.522 313.58 825.208 315.169C855.83 386.081 886.416 456.91 916.954 527.858C917.845 530.152 919.405 532.157 919.054 534.789Z" fill="#ADD6E1"/>
<path d="M656.398 698.414C655.353 696.683 652.034 699.108 651.968 696.656C651.926 694.492 654.821 694.531 656.457 693.725C659.145 692.366 661.753 692.431 663.03 695.848C660.819 696.703 658.609 697.559 656.398 698.414Z" fill="#6EA4B0"/>
<path d="M639.705 705.027C640.561 702.872 640.411 700.456 643.171 699.265C646.182 697.964 647.964 698.187 648.5 701.725C648.035 702.026 647.605 702.41 647.139 702.71C646.303 703.071 645.467 703.432 644.63 703.793C642.969 704.312 641.319 704.628 639.705 705.027Z" fill="#6EA4B0"/>
<path d="M819.075 303.034C817.021 299.655 815.719 295.951 814.5 292.21C817.642 295.12 817.429 300.371 822.364 302.606C820.761 302.802 819.9 302.876 819.075 303.034Z" fill="#ADD6E1"/>
<path d="M812.342 281.237C813.695 281.843 814.248 282.894 814.145 284.724C813.484 283.422 812.895 282.288 812.342 281.237C812.425 281.201 812.342 281.237 812.342 281.237Z" fill="#ADD6E1"/>
<path d="M824.59 303.628C824.495 303.868 824.484 304.071 824.425 304.394C824.186 304.299 823.946 304.204 823.791 304.073C823.755 303.989 823.813 303.667 823.849 303.75C824.064 303.558 824.303 303.653 824.59 303.628Z" fill="#ADD6E1"/>
<path d="M811.762 274.84C811.798 274.923 811.918 274.971 811.954 275.054C811.87 275.09 811.823 275.21 811.655 275.282C811.655 275.282 811.5 275.151 811.464 275.068C811.547 275.031 811.714 274.959 811.762 274.84Z" fill="#ADD6E1"/>
<path d="M165.658 711.4C179.324 718 193.482 716.549 207.709 713.878C218.517 711.79 229.059 708.627 240.049 707.651C246.16 707.096 252.105 707.307 257.557 710.509C261.485 712.483 263.504 715.779 265.034 719.781C266.949 724.907 269.2 729.888 271.534 734.833C272.809 737.557 272.609 738.933 269.598 740.233C237.949 753.801 206.335 767.453 174.721 781.104C133.406 798.945 92.0067 816.823 50.6913 834.664C40.237 839.178 29.7467 843.609 19.3646 848.291C16.8556 849.374 15.6467 849.102 14.6109 846.474C12.0699 840.13 9.3616 833.858 6.48605 827.659C5.24688 825.019 6.19735 822.624 6.21457 820.136C8.11197 809.594 16.3386 804.057 24.0863 798.33C32.562 791.991 41.3741 786.202 49.8859 779.946C58.5289 773.535 65.3852 765.515 69.3411 755.373C70.208 753.014 71.0329 752.856 73.1769 753.915C83.7296 759.28 94.2937 764.441 104.894 769.686C106.559 770.554 108.068 771.292 108.635 768.467C111.412 756.057 114.226 743.729 117.039 731.402L117.326 731.377L117.458 731.222C127.976 737.196 138.506 742.968 148.798 749.338C152.86 751.85 153.742 750.676 154.856 746.821C158.268 734.731 161.502 722.917 165.658 711.4Z" fill="#496871"/>
<path d="M432.047 748.068C312.366 799.749 192.602 851.466 72.9214 903.147C69.2415 904.736 66.78 905.7 66.6928 899.983C66.6511 897.819 65.0299 895.443 63.5417 893.605C61.3331 890.789 62.658 889.72 65.2868 888.685C69.5046 886.962 73.5666 885.109 77.7483 883.303C313.263 781.602 548.777 679.901 784.375 578.164C789.727 575.852 789.727 575.852 792.158 581.252C796.311 590.868 796.311 590.868 786.693 595.022C744.29 613.332 701.935 631.523 659.532 649.834C583.76 682.554 507.903 715.311 432.131 748.031C432.011 747.984 432.011 747.984 432.047 748.068Z" fill="#6EA4B0"/>
<path d="M406.482 316.603C482.254 283.882 558.111 251.125 633.847 218.321C637.444 216.768 639.584 216.439 639.848 221.187C639.897 221.761 640.234 222.31 640.486 222.895C643.738 231.115 643.738 231.115 635.375 234.727C547.057 272.864 458.656 311.039 370.338 349.176C308.532 375.866 246.607 402.508 184.873 429.364C180.44 431.278 178.979 430.421 177.377 426.251C173.728 417.112 173.56 417.184 182.426 413.356C257.111 381.105 331.796 348.854 406.482 316.603Z" fill="#6EA4B0"/>
<path d="M502.571 512.236C447.874 535.855 393.094 559.511 338.397 583.13C331.706 586.019 325.027 588.705 318.445 591.845C315.47 593.229 314.094 593.03 312.649 589.685C307.847 578.563 307.679 578.635 318.886 573.796C414.062 532.696 509.238 491.597 604.414 450.498C629.504 439.663 654.547 428.948 679.565 417.946C683.747 416.14 685.638 416.614 687.348 421.034C691.286 430.843 691.454 430.77 681.919 434.888C622.085 460.627 562.286 486.449 502.571 512.236Z" fill="#6EA4B0"/>
<path d="M539.662 422.799C499.852 439.99 459.959 457.217 420.149 474.408C414.713 476.755 414.713 476.755 412.366 471.32C408.213 461.703 408.213 461.703 417.783 457.669C440.019 448.266 462.037 438.361 484.309 429.041C490.45 426.488 497.156 424.783 502.431 420.224C503.075 419.648 504.955 420.324 506.2 420.679C515.297 422.903 522.636 420.825 527.205 412.105C528.622 409.41 531.729 408.564 534.048 407.959C543.503 405.266 551.634 399.968 560.5 396.14C591.241 382.766 622.091 369.643 652.879 356.149C657.228 354.271 658.857 355.056 660.579 359.273C664.481 368.998 664.648 368.926 655.114 373.043C616.606 389.572 578.134 406.186 539.662 422.799Z" fill="#6EA4B0"/>
<path d="M370.311 405.642C407.11 389.751 443.945 373.944 480.588 357.922C484.268 356.333 486.469 356.375 487.497 360.594C488.379 363.785 491.485 366.611 490.692 369.831C489.734 373.816 485.138 372.824 482.294 374.052C410.19 405.387 337.978 436.471 265.801 467.639C260.449 469.95 260.449 469.95 258.687 464.262C258.518 463.64 258.468 463.067 258.216 462.481C254.823 455.314 254.823 455.314 261.932 452.244C298.134 436.81 334.181 421.244 370.311 405.642Z" fill="#6EA4B0"/>
<path d="M433.591 597.683C465.122 584.068 496.604 570.572 528.062 556.789C531.742 555.2 533.263 555.734 534.768 559.45C538.995 569.927 539.162 569.855 528.708 574.369C467.989 600.589 407.151 626.762 346.504 653.149C342.239 654.991 340.479 654.362 338.721 650.061C334.819 640.336 334.652 640.408 344.186 636.291C373.96 623.434 403.734 610.577 433.591 597.683Z" fill="#6EA4B0"/>
<path d="M649.858 521.955C628.531 531.164 607.252 540.254 585.997 549.63C582.652 551.075 581.298 550.469 579.974 547.171C575.399 536.348 575.316 536.384 585.853 531.833C621.649 516.376 657.361 500.955 693.156 485.497C698.174 483.33 703.145 481.283 708.127 479.033C710.6 477.866 711.905 478.592 713.12 480.944C718.652 492.148 718.736 492.112 707.529 496.951C688.246 505.378 669.093 513.648 649.858 521.955Z" fill="#6EA4B0"/>
<path d="M573.207 318.026C591.273 310.225 609.457 302.472 627.45 294.503C630.628 293.131 632.554 292.994 632.816 297.048C632.818 297.742 633.346 298.506 633.635 299.175C637.09 307.406 637.09 307.406 628.643 311.054C594.269 325.897 559.859 340.657 525.558 355.668C521.627 357.365 520.202 356.592 518.66 352.792C514.831 343.235 514.663 343.307 524.365 339.118C540.674 332.075 556.982 325.032 573.207 318.026Z" fill="#6EA4B0"/>
<path d="M331.246 512.798C318.031 518.505 304.781 524.127 291.639 530.001C288.545 531.337 287.227 530.814 285.891 527.72C281.125 516.682 281.041 516.718 292.081 511.951C316 501.622 340.039 491.34 363.887 480.844C367.065 479.472 368.525 479.635 369.921 483.1C374.485 494.127 374.652 494.054 363.779 498.749C352.907 503.444 342.118 508.103 331.246 512.798Z" fill="#6EA4B0"/>
<path d="M731.757 250.652C742.379 246.065 752.953 241.598 763.502 236.844C766.178 235.689 767.518 235.804 768.579 238.72C770.061 242.842 771.914 246.903 773.815 250.845C774.837 252.983 774.41 254.061 772.235 255C750.37 264.342 728.458 273.805 706.666 283.314C704.324 284.326 703.473 283.503 702.606 281.496C700.993 277.529 699.415 273.647 697.551 269.788C696.119 266.934 696.678 265.7 699.689 264.4C710.299 260.017 720.968 255.311 731.757 250.652Z" fill="#496871"/>
<path d="M839.948 502.573C829.327 507.16 818.753 511.627 808.203 516.381C805.611 517.5 804.187 517.421 803.126 514.505C801.716 510.55 799.935 506.656 798.071 502.798C796.784 500.278 797.583 499.139 800.092 498.056C821.622 488.858 843.032 479.612 864.49 470.247C866.999 469.163 868.255 469.315 869.327 472.028C870.857 476.03 872.435 479.913 874.383 483.735C875.778 486.506 874.896 487.68 872.303 488.8C861.359 493.328 850.653 497.95 839.948 502.573Z" fill="#496871"/>
<path d="M781.734 366.386C792.189 361.871 802.595 357.477 812.977 352.795C816.036 351.375 817.317 351.814 818.689 354.992C823.131 365.277 823.298 365.205 813.095 369.611C794.193 377.773 775.339 385.816 756.594 394.109C752.83 395.734 751.393 395.164 749.888 391.448C745.986 381.723 745.819 381.796 755.353 377.679C764.171 373.97 772.953 370.178 781.734 366.386Z" fill="#496871"/>
<path d="M748.237 289.274C758.942 284.651 769.683 280.112 780.316 275.322C783.076 274.13 784.034 274.51 785.142 277.306C789.478 288.034 789.561 287.998 779.107 292.513C760.289 300.639 741.519 308.645 722.773 316.938C719.177 318.491 717.955 317.729 716.51 314.384C712.489 304.612 712.405 304.648 722.191 300.422C730.925 296.75 739.623 292.994 748.237 289.274Z" fill="#496871"/>
<path d="M864.885 559.173C854.18 563.795 843.439 568.335 832.722 573.161C829.747 574.544 828.561 573.866 827.417 570.987C822.867 560.45 822.784 560.486 833.154 556.008C852.056 547.846 871.077 539.732 889.906 531.402C893.251 529.958 894.485 530.516 895.893 533.778C900.179 543.932 900.262 543.896 890.394 548.158C881.947 551.805 873.416 555.489 864.885 559.173Z" fill="#496871"/>
<path d="M702.063 182.117C712.601 177.566 723.258 173.063 733.724 168.346C736.484 167.154 737.835 167.066 739.124 170.28C742.832 179.097 743.035 179.108 734.087 182.972C714.6 191.387 695.161 199.682 675.746 208.265C672.484 209.673 671.119 209.27 669.759 205.889C666.435 197.502 666.267 197.574 674.547 193.999C683.747 190.026 692.947 186.054 702.063 182.117Z" fill="#496871"/>
<path d="M819.451 455.566C808.996 460.08 798.506 464.511 788.124 469.193C784.982 470.649 783.712 470.006 782.46 466.876C778.98 458.358 778.812 458.43 787.009 454.891C806.663 446.404 826.353 438 845.935 429.346C849.196 427.937 850.597 428.424 852.053 431.565C855.712 439.808 855.795 439.772 847.515 443.347C838.185 447.476 828.818 451.521 819.451 455.566Z" fill="#496871"/>
<path d="M798.254 406.479C787.799 410.994 777.309 415.424 766.927 420.106C764.119 421.418 762.587 421.087 761.443 418.208C757.397 408.148 755.812 410.222 766.506 405.803C771.894 403.575 777.258 401.06 782.694 398.713C796.912 392.573 811.166 386.517 825.312 380.21C828.072 379.018 829.185 379.529 830.377 382.289C834.252 391.033 834.336 390.997 825.387 394.862C816.402 398.642 807.37 402.543 798.254 406.479Z" fill="#496871"/>
<path d="M803.606 417.265C814.311 412.642 825.016 408.019 835.805 403.36C837.896 402.457 839.27 401.963 840.342 404.675C841.342 407.22 841.346 408.607 838.418 409.871C816.936 418.95 795.478 428.315 774.104 437.644C771.845 438.619 770.435 439.03 769.171 436.103C767.871 433.093 768.945 432.133 771.49 431.133C782.196 426.51 792.865 421.804 803.606 417.265C803.57 417.181 803.57 417.181 803.606 417.265Z" fill="#496871"/>
<path d="M827.175 472.074C816.469 476.696 805.764 481.319 795.059 485.942C792.885 486.881 791.391 487.328 790.079 484.521C788.779 481.51 789.889 480.634 792.398 479.551C813.761 470.425 835.004 461.251 856.295 451.958C858.72 450.911 860.203 450.668 861.586 453.642C863.114 456.951 861.046 457.447 858.872 458.386C848.298 462.853 837.676 467.44 827.175 472.074C827.138 471.99 827.175 472.074 827.175 472.074Z" fill="#496871"/>
<path d="M812.876 439.653C802.171 444.276 791.466 448.898 780.761 453.521C778.754 454.388 777.212 454.954 776.14 452.242C775.213 449.865 775.089 448.43 777.802 447.358C799.499 438.087 821.244 428.697 842.869 419.26C845.462 418.14 846.302 419.167 847.241 421.341C848.372 423.73 847.704 424.712 845.363 425.724C834.502 430.215 823.749 434.958 812.876 439.653Z" fill="#496871"/>
<path d="M848.202 520.539C837.664 525.089 827.126 529.64 816.505 534.227C814.498 535.093 812.492 536.654 811.095 533.189C809.807 529.976 811.852 529.886 813.859 529.019C835.27 519.774 856.728 510.408 878.066 500.996C880.324 500.02 881.424 500.041 882.591 502.514C883.783 505.273 882.361 505.887 880.354 506.754C869.613 511.293 858.907 515.916 848.202 520.539Z" fill="#496871"/>
<path d="M841.955 506.072C852.66 501.449 863.366 496.826 874.071 492.204C876.078 491.337 877.62 490.77 878.692 493.483C879.727 496.111 878.066 496.63 876.31 497.388C854.732 506.706 833.238 515.988 811.66 525.306C809.737 526.136 808.148 526.823 807.04 524.027C805.968 521.315 807.665 520.879 809.338 520.157C820.294 515.426 831.166 510.731 841.955 506.072Z" fill="#496871"/>
<path d="M714.785 211.349C703.996 216.008 693.088 220.619 682.335 225.362C679.91 226.409 678.69 226.341 677.534 223.665C676.378 220.989 677.644 220.244 679.652 219.377C701.182 210.179 722.759 200.861 744.217 191.496C747.395 190.123 748.129 191.592 749.271 193.778C750.666 196.549 748.49 196.794 746.901 197.481C736.196 202.103 725.49 206.726 714.785 211.349Z" fill="#496871"/>
<path d="M742.919 277.878C732.298 282.465 721.76 287.016 711.138 291.602C709.382 292.361 707.639 293.609 706.375 290.683C705.147 287.84 706.808 287.321 708.732 286.49C730.226 277.208 751.636 267.963 773.13 258.681C774.636 258.031 776.271 256.531 777.582 259.338C778.893 262.145 777.293 263.035 775.118 263.974C764.413 268.597 753.708 273.22 742.919 277.878Z" fill="#496871"/>
<path d="M790.668 388.225C779.963 392.847 769.258 397.47 758.553 402.093C756.629 402.924 755.113 403.777 753.968 400.898C752.897 398.186 754.594 397.75 756.267 397.028C777.761 387.746 799.255 378.465 820.832 369.147C822.756 368.316 824.392 367.51 825.584 370.27C826.92 373.364 824.421 373.55 822.832 374.236C812.079 378.979 801.374 383.602 790.668 388.225Z" fill="#496871"/>
<path d="M725.827 238.528C715.373 243.043 704.919 247.557 694.464 252.072C692.29 253.011 690.475 254.092 689.114 250.711C687.934 247.748 689.439 247.098 691.614 246.159C712.94 236.95 734.267 227.74 755.594 218.531C757.852 217.556 759.298 217.229 760.526 220.072C761.79 222.999 760.237 223.768 758.063 224.707C747.238 229.283 736.532 233.906 725.827 238.528Z" fill="#496871"/>
<path d="M719.046 221.216C729.668 216.63 740.206 212.079 750.827 207.493C753.086 206.517 754.496 206.107 755.724 208.95C756.951 211.793 755.722 212.622 753.463 213.597C732.017 222.759 710.607 232.004 689.232 241.334C686.807 242.381 685.551 242.229 684.395 239.553C683.276 236.961 684.422 236.168 686.513 235.265C697.338 230.69 708.174 225.911 719.046 221.216Z" fill="#496871"/>
<path d="M850.709 527.493C861.414 522.87 872.119 518.247 882.908 513.588C884.748 512.794 886.277 511.737 887.624 514.628C889.008 517.602 887.335 518.324 885.208 519.144C869.627 525.574 854.419 532.637 838.766 538.901C832.923 541.225 827.093 544.041 821.395 546.7C819.34 547.686 817.595 548.241 816.379 545.195C815.163 542.148 817.339 541.903 819.095 541.145C829.55 536.63 840.171 532.043 850.709 527.493Z" fill="#496871"/>
<path d="M776.164 354.405C765.709 358.919 755.255 363.434 744.801 367.948C742.961 368.743 740.969 370.793 739.38 367.114C737.9 363.686 740.087 363.237 742.214 362.418C758.213 355.807 773.767 348.395 789.91 342.119C794.415 340.372 798.703 338.123 803.028 335.958C804.581 335.189 806.111 334.826 807.833 334.677C810.045 334.516 810.11 336.274 810.771 337.575C811.649 339.379 810.094 339.455 809.007 339.924C798.051 344.656 787.011 349.423 776.055 354.154C776.091 354.238 776.128 354.321 776.164 354.405Z" fill="#496871"/>
<path d="M868.016 566.651C857.31 571.274 846.605 575.897 835.9 580.52C834.144 581.278 832.401 582.527 831.137 579.6C829.837 576.589 832.013 576.344 833.77 575.586C855.013 566.412 876.339 557.203 897.582 548.03C899.59 547.163 901.274 546.237 902.574 549.248C904.054 552.676 901.051 552.386 899.713 552.964C889.175 557.514 878.554 562.101 868.016 566.651Z" fill="#496871"/>
<path d="M762.238 322.617C773.111 317.922 783.983 313.227 794.772 308.568C796.612 307.773 797.986 307.279 799.069 309.788C800.117 312.213 799.006 313.089 797.166 313.884C781.861 320.493 766.676 327.149 751.371 333.758C745.266 336.395 739.161 339.031 732.972 341.704C730.881 342.607 729.088 343.282 727.777 340.474C726.393 337.5 728.737 337.183 730.41 336.46C741.079 331.754 751.7 327.167 762.238 322.617Z" fill="#496871"/>
<path d="M794.416 331.641C775.849 339.658 757.234 347.796 738.668 355.813C736.828 356.608 735.406 357.222 734.323 354.713C733.311 352.372 734.302 351.448 736.225 350.617C752.367 343.647 768.425 336.713 784.566 329.743C787.744 328.37 790.922 326.998 794.136 325.709C793.699 327.684 793.298 329.742 794.416 331.641Z" fill="#496871"/>
<path d="M794.415 331.641C793.298 329.742 793.699 327.684 794.136 325.709C796.275 324.687 798.761 324.01 800.599 322.522C803.464 320.193 804.57 322.295 805.891 324.205C807.692 326.999 805.037 327.054 803.568 327.788C800.557 329.088 797.51 330.304 794.415 331.641Z" fill="#6EA4B0"/>
<path d="M300.222 843.092C300.258 843.176 300.247 843.379 300.247 843.379C300.163 843.415 300.044 843.367 299.877 843.44C299.84 843.356 299.852 843.153 299.852 843.153C299.935 843.117 300.139 843.128 300.222 843.092Z" fill="#6EA4B0"/>
<path d="M357.478 149.351C360.657 147.979 364.452 149.416 365.669 152.462C366.704 155.091 364.575 159.582 361.384 160.464C358.36 161.274 355.642 160.265 354.127 157.446C352.588 154.341 354.133 150.796 357.478 149.351Z" fill="#ADD6E1"/>
<path d="M380.971 814.771C381.091 814.818 381.294 814.83 381.414 814.877C381.258 814.746 381.174 814.782 380.971 814.771Z" fill="#ADD6E1"/>
<path d="M117.433 730.934L117.302 731.09L117.015 731.115C104.692 730.384 92.3564 729.163 79.9654 729.652C72.9327 729.911 71.9614 729.04 70.0059 722.444C67.2293 713.026 63.5802 703.887 58.6767 695.289C57.4147 693.056 55.1167 692.56 53.3073 691.357C39.5368 681.528 27.6158 670.007 19.2266 655.176C20.0135 654.241 19.2818 653.465 18.8732 652.749C15.9387 646.872 14.08 640.73 13.225 634.154C10.6731 614.917 20.3468 595.956 36.7734 588.267C37.1438 592.572 33.7908 595.608 32.6654 599.665C42.175 595.261 47.6666 586.838 55.1729 580.322C56.6362 586.238 53.3591 590.828 52.4523 596.082C56.9457 594.538 60.1562 591.862 63.5947 589.484C75.9404 581.077 85.5529 570.477 89.6877 555.694C90.5641 552.439 92.0485 552.889 94.2172 554.235C102.831 559.246 108.104 567.089 112.815 575.472C119.834 587.82 124.308 601.167 129.487 614.309C129.992 615.48 129.627 617.622 132.007 617.388C134.821 631.948 134.37 646.529 131.515 661.058C131.279 662.35 131.522 663.832 131.944 665.039C135.701 674.43 139.495 683.904 145.14 692.38C146.233 693.992 146.966 695.461 146.613 697.399C146.398 697.591 146.099 697.819 145.885 698.011C145.706 698.287 145.444 698.599 145.301 698.958C145.086 699.15 144.871 699.342 144.657 699.534C144.478 699.809 144.252 700.205 144.073 700.48C143.32 700.805 142.807 701.225 142.678 702.075C140.623 703.061 139.659 704.966 138.264 706.56C131.396 714.785 124.456 722.841 117.433 730.934Z" fill="#F0BE6F"/>
<path d="M132.163 617.519C129.867 617.717 130.148 615.611 129.643 614.44C124.464 601.298 119.99 587.951 112.971 575.603C108.259 567.22 102.987 559.377 94.3731 554.365C92.1569 553.14 90.7199 552.57 89.8436 555.825C85.7924 570.572 76.0963 581.208 63.7506 589.615C60.312 591.993 57.1015 594.669 52.6081 596.213C53.5625 590.84 56.7921 586.369 55.3288 580.453C47.7863 586.885 42.2111 595.345 32.8212 599.796C33.9466 595.739 37.2997 592.703 36.9292 588.398C20.5026 596.087 10.9125 615.012 13.3808 634.285C14.1997 640.777 16.0945 647.004 19.029 652.88C19.4376 653.596 20.1694 654.372 19.3824 655.307C2.42448 643.382 -12.4939 629.286 -20.0352 609.524C-27.5765 589.763 -25.4506 570.787 -11.4167 554.111C-8.26887 550.371 -5.14203 547.731 -4.64377 541.761C-3.83175 532.381 3.96345 526.535 11.5951 522.148C35.3741 508.506 60.4013 505.339 86.2073 515.923C107.187 524.524 119.004 541.547 125.83 562.411C131.644 580.24 132.519 598.812 132.163 617.519Z" fill="#496871"/>
<path d="M333.539 232.018C332.702 232.379 331.866 232.74 331.03 233.102C322.092 236.762 322.092 236.762 318.337 228.066C314.978 220.289 314.906 220.122 322.96 216.941C328.265 214.75 333.137 211.555 339.044 210.988C343.11 210.522 346.592 211.003 348.47 215.351C350.203 219.365 349.196 222.777 345.293 226.148C344.649 226.724 343.957 227.42 343.121 227.781C339.979 229.237 336.764 230.526 333.503 231.934L333.539 232.018Z" fill="#6EA4B0"/>
<path d="M134.415 321.477C132.14 316.209 129.948 310.905 127.554 305.589C126.507 303.164 126.718 301.585 129.382 300.632C134.796 298.692 140.029 296.333 145.514 294.559C151.658 292.7 157.118 295.005 161.066 299.551C165.398 304.526 168.081 310.511 168.602 317.232C169.21 325.303 166.09 330.718 158.624 334.339C154.514 336.312 150.224 337.867 146.115 339.84C143.391 341.116 142.384 340.162 141.42 337.7C139.157 332.229 136.726 326.829 134.415 321.477Z" fill="#6EA4B0"/>
<path d="M380.083 214.796C377.844 209.612 375.725 204.475 373.403 199.326C372.236 196.853 372.722 195.453 375.267 194.453C380.572 192.261 385.853 189.783 391.399 188.38C396.073 187.254 400.608 187.876 404.229 190.975C412.022 197.532 415.084 206.23 414.285 216.1C413.846 221.747 409.837 225.561 404.724 227.968C400.781 229.869 396.575 231.387 392.669 233.372C389.647 234.875 388.197 233.815 387.041 231.139C384.777 225.667 382.43 220.232 380.083 214.796Z" fill="#6EA4B0"/>
<path d="M294.338 257.974C288.568 260.466 283.299 262.742 278.113 264.981C275.437 266.136 275.409 264.462 275.392 262.584C275.227 254.619 274.942 246.606 274.693 238.677C281.074 244.95 287.454 251.224 294.338 257.974Z" fill="#6EA4B0"/>
</g>
<defs>
<clipPath id="clip0">
<rect width="993.252" height="625.856" fill="white" transform="translate(-217.958 394.764) rotate(-23.3559)"/>
</clipPath>
</defs>
</svg>
